<?xml version="1.0" encoding="utf-8"?>
<!-- Generator: Adobe Illustrator 15.0.0, SVG Export Plug-In . SVG Version: 6.00 Build 0)  -->
<!DOCTYPE svg PUBLIC "-//W3C//DTD SVG 1.1 Tiny//EN" "http://www.w3.org/Graphics/SVG/1.1/DTD/svg11-tiny.dtd">
<svg version="1.1" baseProfile="tiny" id="Layer_1" xmlns="http://www.w3.org/2000/svg" xmlns:xlink="http://www.w3.org/1999/xlink"
	 x="0px" y="0px" width="16px" height="16px" viewBox="0 0 16 16" xml:space="preserve">
<path fill-rule="evenodd" fill="#333333" d="M14.763,14.532v0.231H1.237v-0.231c0.85-4.251,3.71-5.875,6.724-5.875
	C10.976,8.657,13.835,10.28,14.763,14.532z M11.053,4.251c0,2.009-1.469,3.091-3.092,3.091c-2.009,0-3.014-1.468-3.014-3.091
	c0-1.778,1.237-3.015,3.014-3.015C9.971,1.237,11.053,2.705,11.053,4.251z M12.29,4.251c0,1.16-0.696,2.551-1.855,3.556
	C13.99,8.966,16,12.522,16,15.227C16,15.382,15.845,16,15.459,16H0.463C0,15.691,0,15.537,0,15.227c0-2.705,1.933-6.261,5.565-7.42
	C4.328,6.802,3.71,5.411,3.71,4.251C3.71,1.855,5.72,0,7.961,0C10.28,0,12.29,2.01,12.29,4.251z"/>
</svg>
