<?xml version="1.0" encoding="utf-8"?>
<!-- Generator: Adobe Illustrator 15.0.0, SVG Export Plug-In . SVG Version: 6.00 Build 0)  -->
<!DOCTYPE svg PUBLIC "-//W3C//DTD SVG 1.1 Tiny//EN" "http://www.w3.org/Graphics/SVG/1.1/DTD/svg11-tiny.dtd">
<svg version="1.1" baseProfile="tiny" id="Layer_1" xmlns="http://www.w3.org/2000/svg" xmlns:xlink="http://www.w3.org/1999/xlink"
	 x="0px" y="0px" width="16px" height="16px" viewBox="0 0 16 16" xml:space="preserve">
<path fill-rule="evenodd" fill="#666666" d="M0.618,14.763C0.277,14.763,0,15.04,0,15.382S0.277,16,0.618,16h14.764
	C15.723,16,16,15.724,16,15.382s-0.277-0.619-0.618-0.619H0.618z M7.884,0C7.542,0,7.266,0.277,7.266,0.618v9.636l-2.47-2.47
	c-0.241-0.242-0.634-0.242-0.875,0c-0.242,0.242-0.242,0.635,0,0.876l3.513,3.51c0.113,0.123,0.274,0.196,0.451,0.196
	s0.338-0.074,0.451-0.196l3.514-3.51c0.241-0.242,0.241-0.635,0-0.876c-0.242-0.242-0.635-0.242-0.876,0l-2.47,2.47V0.618
	C8.502,0.277,8.226,0,7.884,0z"/>
</svg>
